# Irregular planar lesion; local normal points toward -Y.
mtllib disease_patch.mtl
o disease_patch
v -0.120 0.000 -0.060
v -0.038 0.000 -0.102
v  0.060 0.000 -0.083
v  0.123 0.000 -0.027
v  0.105 0.000  0.053
v  0.030 0.000  0.096
v -0.068 0.000  0.078
v -0.135 0.000  0.018
vt 0.00 0.25
vt 0.30 0.00
vt 0.70 0.08
vt 1.00 0.36
vt 0.92 0.76
vt 0.62 1.00
vt 0.20 0.88
vt 0.00 0.55
vn 0 -1 0
usemtl lesion_red_brown
f 1/1/1 2/2/1 3/3/1
f 1/1/1 3/3/1 4/4/1
f 1/1/1 4/4/1 5/5/1
f 1/1/1 5/5/1 6/6/1
f 1/1/1 6/6/1 7/7/1
f 1/1/1 7/7/1 8/8/1
